<?xml version="1.0" standalone="no"?>
<!DOCTYPE svg PUBLIC "-//W3C//DTD SVG 20010904//EN"
 "http://www.w3.org/TR/2001/REC-SVG-20010904/DTD/svg10.dtd">
<svg version="1.0" xmlns="http://www.w3.org/2000/svg"
 width="500.000000pt" height="500.000000pt" viewBox="0 0 500.000000 500.000000"
 preserveAspectRatio="xMidYMid meet">

<g transform="translate(0.000000,500.000000) scale(0.100000,-0.100000)"
fill="#000000" stroke="none">
<path d="M2360 4899 c-480 -24 -939 -201 -1330 -515 -313 -250 -620 -654 -763
-1004 -125 -303 -173 -572 -164 -904 7 -277 55 -519 152 -782 41 -110 147
-338 161 -346 5 -3 38 -1 74 3 36 4 104 11 153 15 75 6 87 5 87 -9 0 -8 -21
-28 -47 -43 -105 -61 -163 -105 -163 -125 0 -10 20 -47 45 -81 25 -34 45 -65
45 -69 0 -3 -37 -16 -82 -28 -92 -25 -208 -76 -208 -92 0 -19 28 -39 54 -39
33 0 133 -90 256 -230 112 -127 144 -151 207 -157 64 -7 81 13 96 106 6 39 13
71 16 71 4 0 33 -22 66 -50 33 -27 65 -50 70 -50 17 0 88 78 134 147 22 34 45
65 51 68 22 14 14 -97 -15 -213 -13 -51 -22 -99 -18 -107 14 -38 326 -199 502
-260 255 -88 435 -118 716 -119 251 -1 438 25 699 95 765 207 1363 771 1630
1538 216 620 169 1367 -116 1862 -22 38 -42 68 -44 67 -2 -2 4 -26 12 -53 37
-120 64 -293 70 -445 18 -453 -100 -867 -342 -1193 -47 -64 -74 -86 -59 -49
20 52 65 250 75 335 18 143 8 463 -19 588 -18 83 -83 294 -94 305 -2 3 -2 -29
1 -70 12 -194 -67 -529 -183 -771 -84 -175 -274 -397 -461 -539 -109 -82 -280
-168 -394 -197 -72 -18 -103 -21 -205 -16 -230 10 -373 86 -444 237 -24 51
-26 65 -26 195 0 121 4 154 28 245 70 262 133 394 273 575 124 160 306 309
429 350 46 16 63 29 91 66 50 68 282 290 425 405 138 112 347 266 452 334 37
23 67 45 67 48 0 3 -53 2 -117 -1 -199 -10 -427 -59 -695 -147 -293 -96 -545
-237 -1191 -663 -56 -37 -127 -80 -157 -96 -132 -69 -292 -107 -414 -99 -36 2
-63 1 -58 -3 14 -14 158 -58 241 -73 46 -9 118 -16 161 -16 127 0 327 59 489
146 36 18 66 33 67 31 1 -1 5 -30 9 -63 l7 -62 -44 -29 c-176 -120 -464 -250
-631 -287 -222 -50 -422 35 -506 213 -23 50 -26 67 -25 166 1 125 23 214 94
376 51 116 175 334 240 420 204 272 550 459 977 528 71 12 149 21 173 21 65 0
44 9 -71 31 -155 30 -453 36 -634 15 -138 -17 -283 -44 -379 -72 -27 -8 -51
-12 -53 -10 -3 2 26 29 64 59 244 196 520 312 864 362 137 19 440 20 569 1 52
-8 115 -17 140 -20 l45 -6 -60 29 c-241 116 -636 172 -1065 150z m1195 -1173
l-37 -46 -71 0 c-39 0 -67 3 -63 8 10 9 200 90 205 86 2 -2 -14 -23 -34 -48z"/>
</g>
</svg>
